<?xml version="1.0" encoding="utf-8"?>
<!-- Generator: Adobe Illustrator 24.2.0, SVG Export Plug-In . SVG Version: 6.00 Build 0)  -->
<svg version="1.1" xmlns="http://www.w3.org/2000/svg" xmlns:xlink="http://www.w3.org/1999/xlink" x="0px" y="0px"
	 viewBox="0 0 283.5 283.5" style="enable-background:new 0 0 283.5 283.5;" xml:space="preserve">
<style type="text/css">
	.st0{fill:#F5F6F8;}
	.st1{fill:#222326;}
	.st2{fill:#0B0C0E;}
	.st3{fill:#B6B6B7;}
	.st4{fill:#060707;}
	.st5{fill:#888DB0;}
	.st6{fill:url(#SVGID_1_);}
	.st7{fill:#131419;}
	.st8{fill:#080505;}
	.st9{fill:url(#SVGID_2_);}
	.st10{fill:#212121;}
	.st11{fill:#010101;}
	.st12{fill:url(#SVGID_3_);}
	.st13{fill:#2D2D2D;}
	.st14{fill:#111213;}
	.st15{fill:#050506;}
	.st16{fill:#B5B8C3;}
	.st17{fill:#9AA1C5;}
	.st18{fill:#060606;}
	.st19{fill:#050505;}
	.st20{fill:#F6F6F6;}
	.st21{fill:#716558;}
	.st22{fill:url(#SVGID_4_);}
	.st23{fill:url(#SVGID_5_);}
	.st24{fill:#050707;}
</style>
<g id="Layer_3">
	<g>
		<polygon points="240.9,187.1 192,259 190.4,259.7 162.7,259.7 161.8,258.9 161.8,52.1 161.7,23.8 162.3,23.8 240,164.4 240,165.7 
					"/>
		<polygon points="121.8,23.8 121.7,49.6 121.7,258.9 120.7,259.7 93,259.7 91.5,259 42.6,187.1 43.5,165.7 43.5,164.4 121.2,23.8 
					"/>
	</g>
</g>
<g id="Layer_2">
	<g>
		<polygon class="st0" points="93.4,252.3 93.8,253.9 92.3,253.1 		"/>
		<polygon class="st1" points="119.8,252.3 93.4,252.3 93.8,253.9 119.8,253.9 		"/>
		<polygon class="st2" points="93.8,253.9 93,259.7 120.7,259.7 119.8,253.9 		"/>
		<polygon class="st3" points="121,253.1 119.8,252.3 119.8,253.9 		"/>
		<polygon class="st4" points="120.7,259.7 121.7,259 121,253.1 119.8,253.9 		"/>
		<polygon class="st5" points="92.3,253.1 91.5,259 93,259.7 93.8,253.9 		"/>
		<linearGradient id="SVGID_1_" gradientUnits="userSpaceOnUse" x1="44.3479" y1="178.4457" x2="93.0774" y2="254.6532">
			<stop  offset="0" style="stop-color:#0C0D10"/>
			<stop  offset="0.5151" style="stop-color:#202230"/>
			<stop  offset="1" style="stop-color:#686D8C"/>
		</linearGradient>
		<polygon class="st6" points="91.5,259 42.6,187.1 43.5,165.7 92.3,253.1 		"/>
		<polygon class="st7" points="92.3,253.1 93.4,252.3 44.1,164.4 43.5,165.7 		"/>
		<polygon class="st8" points="43.5,165.7 43.5,164.4 44.1,164.4 		"/>
		<linearGradient id="SVGID_2_" gradientUnits="userSpaceOnUse" x1="120.4781" y1="25.7814" x2="44.3602" y2="163.3203">
			<stop  offset="0" style="stop-color:#35140E"/>
			<stop  offset="0.2207" style="stop-color:#D45627"/>
			<stop  offset="0.4177" style="stop-color:#FDBF5A"/>
			<stop  offset="0.6788" style="stop-color:#D55627"/>
			<stop  offset="1" style="stop-color:#27100B"/>
		</linearGradient>
		<polygon class="st9" points="43.5,164.4 121.2,23.8 120.8,25.9 44.1,164.4 		"/>
		<polygon class="st10" points="119.8,252.3 121,253.1 121.8,23.8 120.8,25.9 		"/>
		<polygon class="st11" points="121.7,23.8 121.7,259 121,253.1 		"/>
		<linearGradient id="SVGID_3_" gradientUnits="userSpaceOnUse" x1="120.814" y1="24.8172" x2="121.7626" y2="24.8172">
			<stop  offset="0" style="stop-color:#35140E"/>
			<stop  offset="1" style="stop-color:#27100B"/>
		</linearGradient>
		<polygon class="st12" points="121.2,23.8 120.8,25.9 121.8,23.8 		"/>
		<polygon class="st13" points="190,252.3 189.7,253.9 191.1,253.1 		"/>
		<polygon class="st14" points="163.6,252.3 190,252.3 189.7,253.9 163.6,253.9 		"/>
		<polygon class="st15" points="189.7,253.9 190.4,259.7 162.7,259.7 163.6,253.9 		"/>
		<polygon class="st16" points="162.5,253.1 163.6,252.3 163.6,253.9 		"/>
		<polygon class="st17" points="162.7,259.7 161.8,259 162.5,253.1 163.6,253.9 		"/>
		<polygon class="st18" points="191.1,253.1 192,259 190.4,259.7 189.7,253.9 		"/>
		<polygon class="st19" points="192,259 240.9,187.1 240,165.7 191.1,253.1 		"/>
		<polygon class="st20" points="191.1,253.1 190,252.3 239.4,164.4 240,165.7 		"/>
		<polygon class="st21" points="240,165.7 240,164.4 239.4,164.4 		"/>
		<polygon class="st19" points="240,164.4 162.3,23.8 162.7,25.9 239.4,164.4 		"/>
		<linearGradient id="SVGID_4_" gradientUnits="userSpaceOnUse" x1="127.8815" y1="53.0503" x2="151.9746" y2="246.8181">
			<stop  offset="2.700501e-03" style="stop-color:#050404"/>
			<stop  offset="1" style="stop-color:#050606"/>
		</linearGradient>
		<path class="st22" d="M119.8,252.3H93.4l-49.3-87.8l76.7-138.6L119.8,252.3z M163.6,252.3H190l49.3-87.8L162.7,25.9L163.6,252.3z"
			/>
		<linearGradient id="SVGID_5_" gradientUnits="userSpaceOnUse" x1="164.1461" y1="24.7723" x2="163.5772" y2="68.0878">
			<stop  offset="0" style="stop-color:#A63A23"/>
			<stop  offset="0.5151" style="stop-color:#D05227"/>
			<stop  offset="0.8545" style="stop-color:#050606"/>
		</linearGradient>
		<polygon class="st23" points="163.6,252.3 162.5,253.1 161.7,23.8 162.7,25.9 		"/>
		<polygon class="st24" points="161.8,23.8 161.8,259 162.5,253.1 		"/>
		<polygon class="st19" points="162.3,23.8 162.7,25.9 161.7,23.8 		"/>
	</g>
</g>
</svg>
